<?xml version="1.0" standalone="no"?>
<!DOCTYPE svg PUBLIC "-//W3C//DTD SVG 20010904//EN"
 "http://www.w3.org/TR/2001/REC-SVG-20010904/DTD/svg10.dtd">
<svg version="1.0" xmlns="http://www.w3.org/2000/svg"
 width="2000.000000pt" height="2000.000000pt" viewBox="0 0 2000.000000 2000.000000"
 preserveAspectRatio="xMidYMid meet">
<metadata>
Created by potrace 1.15, written by Peter Selinger 2001-2017
</metadata>
<g transform="translate(0.000000,2000.000000) scale(0.100000,-0.100000)"
fill="#000000" stroke="none">
<path d="M9291 17330 c-620 -71 -1194 -215 -1811 -453 -135 -52 -327 -134
-427 -181 -215 -101 -594 -308 -848 -462 -274 -166 -677 -464 -890 -659 -55
-50 -139 -125 -187 -168 -48 -42 -119 -111 -157 -154 -38 -43 -83 -91 -101
-108 -18 -16 -119 -127 -224 -245 -243 -272 -620 -771 -794 -1051 -557 -899
-945 -2014 -1062 -3052 -30 -265 -30 -275 -30 -801 0 -627 6 -700 100 -1267
65 -386 134 -671 247 -1014 175 -532 500 -1212 804 -1680 185 -285 279 -416
475 -660 232 -290 455 -533 513 -560 30 -13 41 -24 41 -40 0 -21 124 -137 403
-374 548 -465 1137 -827 1862 -1143 725 -316 1457 -503 2257 -578 850 -79
1639 -12 2478 212 648 172 1265 440 1935 839 245 146 512 336 810 576 217 174
287 239 530 484 537 544 846 944 1203 1554 141 241 229 420 393 798 285 658
485 1453 559 2226 107 1131 -53 2184 -511 3353 -435 1111 -1257 2220 -2234
3014 -462 375 -747 559 -1395 897 -368 192 -1012 433 -1445 541 -285 71 -637
130 -1000 167 -276 27 -311 29 -725 28 l-435 -1 -334 -38z m1274 -400 c223
-20 589 -70 795 -109 321 -62 817 -215 1225 -379 206 -83 635 -293 802 -393
652 -391 993 -648 1426 -1078 533 -528 927 -1042 1269 -1656 143 -257 259
-507 388 -835 235 -601 386 -1198 450 -1778 28 -261 30 -299 30 -676 0 -220
-5 -463 -11 -540 -10 -135 -81 -662 -90 -670 -2 -2 -101 1 -219 6 -118 5 -361
7 -540 5 -302 -5 -349 -8 -665 -46 -187 -23 -518 -59 -736 -81 l-396 -40 -489
0 -489 0 -390 40 c-653 66 -1312 190 -1699 320 -184 61 -221 77 -329 144 -140
86 -271 210 -354 336 -187 282 -256 676 -188 1065 31 178 76 298 165 440 187
298 458 460 978 586 253 61 701 123 1002 139 112 6 205 12 206 13 2 1 -2 23
-7 48 l-10 45 -162 17 c-125 13 -253 17 -559 17 -370 0 -408 -2 -568 -25 -204
-30 -206 -30 -214 -8 -5 12 12 36 57 82 356 369 533 643 618 959 l39 143 -1
257 c-1 141 -4 270 -8 286 -5 24 -21 -19 -84 -222 -95 -310 -173 -485 -309
-692 -218 -332 -358 -467 -898 -857 -107 -78 -222 -164 -255 -192 -32 -28 -62
-51 -65 -51 -3 0 -14 48 -23 108 -13 83 -17 172 -17 402 l0 295 39 150 c43
170 105 311 215 490 137 222 348 400 726 610 231 128 316 189 427 302 106 107
139 157 153 234 6 30 15 56 20 57 6 2 17 17 26 34 12 24 14 46 9 100 -11 108
-37 106 -95 -9 -27 -53 -61 -94 -151 -183 -112 -110 -125 -120 -305 -221 -104
-59 -270 -148 -369 -199 -113 -59 -211 -118 -264 -159 -47 -36 -105 -77 -130
-91 -30 -16 -47 -33 -49 -47 -2 -13 -48 -71 -103 -130 -63 -69 -134 -162 -194
-255 -71 -108 -102 -148 -121 -152 -33 -9 -37 -6 -75 62 -17 31 -90 134 -161
227 -217 284 -414 438 -828 645 -176 88 -247 130 -340 200 -110 83 -260 231
-260 257 0 6 -18 43 -41 82 -41 71 -70 90 -83 55 -9 -24 -7 -172 3 -178 5 -3
12 -18 16 -33 3 -14 37 -79 75 -143 118 -201 213 -274 815 -630 107 -63 208
-157 350 -328 93 -111 109 -137 180 -288 65 -139 85 -194 121 -338 l44 -171 0
-240 c0 -197 -4 -265 -21 -377 -12 -76 -25 -138 -28 -138 -4 0 -38 26 -77 58
-38 33 -197 152 -354 267 -318 231 -432 334 -604 545 -131 161 -203 274 -311
490 -64 128 -107 232 -160 390 -40 118 -79 229 -86 245 l-13 30 -7 -55 c-4
-30 -7 -139 -8 -241 -1 -169 2 -199 28 -330 37 -178 97 -323 206 -499 94 -151
256 -358 360 -460 42 -41 88 -97 102 -124 l25 -49 -39 7 c-221 38 -344 46
-733 46 -293 0 -442 -4 -577 -17 l-183 -17 0 -48 0 -48 63 0 c34 0 174 -9 311
-20 520 -43 1059 -156 1316 -278 356 -168 546 -397 649 -780 l41 -153 0 -267
c-1 -304 -4 -328 -74 -506 -132 -339 -373 -563 -757 -706 -340 -127 -1035
-261 -1744 -335 l-340 -35 -485 0 c-539 0 -697 9 -1280 75 -698 79 -906 95
-1185 94 -143 0 -339 -4 -435 -8 -128 -6 -178 -5 -188 3 -21 20 -50 205 -82
522 -27 272 -30 334 -30 651 0 753 84 1282 329 2063 117 375 282 772 453 1090
393 731 723 1186 1237 1703 450 455 744 693 1251 1015 567 361 1165 626 1850
820 405 115 658 165 1063 212 323 37 342 38 702 39 204 0 424 -4 490 -9z
m1135 -8344 c47 -8 180 -44 297 -80 290 -89 589 -148 948 -186 188 -20 667
-53 1460 -100 1337 -80 1611 -104 1966 -175 123 -25 233 -47 245 -50 19 -4 20
-8 12 -77 -4 -40 -18 -95 -30 -121 -19 -42 -25 -47 -47 -43 -136 28 -642 99
-821 115 -196 18 -912 58 -1619 91 -434 20 -1044 69 -1351 109 -381 48 -648
112 -933 223 -220 85 -290 128 -305 189 -10 40 -9 45 19 81 35 43 39 44 159
24z m-3101 -45 l31 -39 -18 -47 c-15 -43 -23 -50 -84 -81 -37 -19 -76 -34 -86
-34 -24 0 -193 -68 -213 -86 -33 -30 -231 -87 -434 -125 -235 -44 -774 -110
-1145 -139 -135 -11 -479 -29 -765 -40 -1083 -41 -1578 -79 -2040 -156 -115
-19 -222 -37 -238 -40 -26 -5 -29 -2 -56 58 -16 35 -32 88 -36 120 -6 49 -5
57 11 61 11 4 125 26 254 51 412 79 634 98 1975 176 1038 61 1258 76 1545 109
386 45 620 93 935 190 154 48 204 60 262 60 71 1 71 1 102 -38z m1829 -179
c43 -17 44 -18 93 -141 58 -146 146 -277 278 -414 178 -183 468 -330 1006
-508 325 -107 487 -170 1000 -389 247 -105 361 -144 471 -159 38 -6 200 -20
359 -31 160 -12 314 -27 344 -33 l53 -12 -45 -33 c-60 -43 -245 -125 -329
-146 -91 -22 -263 -21 -413 4 -206 33 -361 85 -710 240 -357 158 -536 227
-960 370 -511 172 -746 302 -986 547 -142 144 -223 267 -274 414 -27 79 -35
117 -35 172 0 66 2 73 32 104 36 37 54 39 116 15z m-593 -34 c27 -32 28 -35
22 -123 -5 -78 -14 -112 -66 -250 -50 -133 -74 -180 -138 -275 -78 -116 -240
-293 -356 -391 -53 -45 -63 -49 -109 -49 -43 0 -57 5 -80 27 -25 24 -28 34
-28 92 l0 66 155 155 c149 149 159 161 235 295 50 88 100 195 135 290 31 83
66 160 78 173 16 17 31 22 73 22 47 0 55 -3 79 -32z m-678 -39 c19 -19 23 -32
23 -83 l0 -61 -92 -92 c-124 -122 -235 -198 -467 -320 -166 -88 -224 -112
-405 -172 -362 -119 -527 -151 -1216 -232 -653 -76 -937 -122 -1446 -234 -206
-46 -441 -88 -754 -136 -256 -39 -531 -87 -629 -110 -140 -32 -176 -38 -183
-27 -4 7 -27 46 -49 87 -33 60 -40 79 -34 107 6 33 7 34 134 74 105 33 192 49
497 95 510 76 767 123 1209 220 404 89 603 120 1310 200 627 71 982 153 1320
304 88 39 166 69 173 66 17 -6 72 25 72 41 0 6 46 41 103 77 56 36 130 88 164
116 135 109 143 113 197 107 31 -3 58 -14 73 -27z m1959 22 c17 -5 86 -49 155
-97 68 -49 137 -98 154 -108 16 -11 36 -27 45 -36 22 -26 168 -110 189 -110
10 0 94 -32 187 -70 273 -114 525 -178 940 -239 187 -27 501 -68 699 -90 419
-47 758 -106 1250 -216 265 -59 429 -89 745 -135 478 -70 780 -135 780 -169 0
-21 -40 -121 -66 -164 -27 -44 -32 -48 -59 -42 -149 29 -711 123 -960 160
-210 32 -442 76 -720 137 -440 96 -546 112 -1475 223 -331 39 -405 51 -630
104 -563 131 -938 309 -1278 605 -84 73 -92 83 -102 129 -11 50 -10 51 27 89
39 40 62 45 119 29z m-963 -707 c19 -4 33 -17 47 -44 18 -35 20 -60 20 -239 0
-184 -2 -211 -29 -334 -26 -120 -38 -152 -109 -293 -72 -143 -88 -166 -154
-231 -54 -53 -108 -91 -208 -149 -74 -42 -178 -108 -231 -145 -122 -86 -146
-123 -160 -247 -10 -84 -9 -90 19 -166 18 -50 46 -100 77 -138 43 -53 62 -66
179 -125 257 -129 449 -163 922 -163 284 0 329 2 486 26 455 67 1247 356 2108
769 330 158 496 225 742 295 295 85 407 100 761 100 264 0 294 -2 462 -29 213
-35 406 -96 585 -186 63 -31 116 -59 118 -60 2 -2 0 -24 -3 -49 -6 -35 -20
-62 -59 -109 l-51 -63 -194 78 c-304 122 -500 158 -859 158 -174 0 -230 -4
-400 -30 -283 -42 -506 -118 -894 -303 -422 -201 -590 -276 -943 -417 -522
-208 -793 -301 -1070 -366 -345 -80 -374 -84 -778 -84 -341 0 -353 1 -525 30
-422 71 -700 217 -847 445 -78 120 -85 150 -85 342 l0 163 46 92 c73 146 125
200 294 305 80 50 181 112 225 137 70 40 91 59 150 136 56 73 76 109 106 194
50 139 57 184 69 440 l10 220 27 29 c29 30 44 31 146 11z m-1571 -417 c47 -21
55 -29 70 -71 l18 -48 -38 -49 c-37 -49 -38 -49 -82 -44 -25 4 -56 14 -70 24
-21 15 -25 27 -28 82 -3 63 -3 64 35 96 21 18 39 33 40 33 1 0 26 -11 55 -23z
m2060 12 c68 -15 296 -129 431 -216 137 -89 323 -256 392 -353 44 -62 54 -85
60 -133 7 -58 7 -59 -31 -98 -40 -41 -55 -44 -126 -23 -9 3 -69 62 -133 131
-139 150 -260 242 -487 369 -84 47 -172 105 -195 127 -40 38 -43 45 -43 93 0
48 3 54 38 83 20 17 38 30 39 31 1 0 26 -5 55 -11z m-3040 -132 c44 -39 48
-47 58 -110 l11 -68 -41 -49 c-42 -50 -38 -48 -155 -66 -22 -3 -43 4 -77 26
-43 27 -49 35 -68 100 l-21 70 27 45 c43 73 77 95 154 95 62 0 67 -2 112 -43z
m1785 -149 c30 -29 33 -38 33 -89 l0 -58 -53 -30 c-37 -21 -141 -54 -338 -106
-156 -42 -438 -126 -626 -186 -432 -139 -485 -149 -804 -149 l-235 0 -245 49
c-360 73 -559 132 -759 225 -91 43 -166 79 -168 81 -2 1 12 12 31 24 32 20 48
21 245 21 l212 0 358 -70 358 -70 211 0 211 0 174 46 c95 25 301 86 458 136
356 114 724 206 830 207 70 1 76 -1 107 -31z m2975 -395 c31 -33 38 -48 47
-110 11 -72 11 -73 -20 -123 -17 -28 -39 -55 -49 -60 -10 -6 -56 -10 -102 -10
-84 0 -84 0 -120 38 -50 52 -58 72 -58 143 0 62 1 64 47 111 l47 48 86 0 86 0
36 -37z m-6416 -23 c424 -60 1000 -302 1359 -572 l150 -113 9 -68 c12 -96 3
-112 -71 -125 l-58 -11 -155 103 c-85 56 -256 155 -380 219 -187 96 -262 129
-444 191 -299 104 -495 136 -825 136 -331 0 -675 -72 -910 -189 -65 -33 -113
-51 -129 -49 -21 2 -39 21 -85 92 l-59 88 43 44 c35 36 67 53 193 103 340 135
523 168 947 170 225 1 301 -3 415 -19z m4637 -56 c53 -42 53 -41 61 -125 6
-59 5 -67 -24 -111 -18 -28 -45 -55 -68 -67 -35 -18 -46 -19 -110 -9 -70 10
-70 10 -120 72 l-50 61 10 60 c9 51 17 67 56 108 l46 47 76 0 c73 0 79 -2 123
-36z m-1975 -140 c82 -23 118 -61 131 -136 10 -59 10 -62 -21 -113 -20 -33
-47 -62 -76 -79 -42 -25 -52 -27 -108 -21 -55 6 -65 11 -103 49 -35 35 -43 52
-51 102 -6 32 -10 64 -10 69 0 16 96 128 116 136 30 12 62 10 122 -7z m2704
-70 c39 -5 50 -12 76 -47 16 -23 34 -64 40 -92 11 -53 5 -70 -55 -152 -24 -33
-24 -33 -111 -33 l-86 0 -48 47 c-47 46 -48 48 -48 110 0 89 22 130 85 159 28
13 61 21 75 19 14 -2 46 -7 72 -11z m-5396 -574 c366 -74 637 -190 1064 -457
389 -243 463 -274 1070 -454 697 -207 1233 -321 1731 -368 524 -50 1158 -16
1667 90 217 45 271 61 500 144 284 103 672 278 878 396 71 40 207 124 303 186
96 62 269 161 385 222 192 99 228 114 401 165 277 81 504 116 768 116 l198 0
160 -40 c141 -36 279 -88 279 -106 0 -14 -110 -146 -195 -234 -50 -52 -120
-128 -156 -169 -35 -41 -161 -162 -279 -269 -423 -383 -938 -741 -1501 -1043
-413 -222 -1085 -474 -1544 -579 -49 -12 -126 -29 -170 -40 -144 -34 -556 -99
-765 -119 -168 -17 -275 -21 -593 -21 -386 0 -388 0 -740 40 -287 33 -406 51
-642 100 -639 132 -1344 393 -1946 721 -204 111 -266 149 -539 328 -303 199
-526 372 -827 644 -237 213 -467 453 -546 570 -33 48 -38 60 -30 84 8 25 22
32 124 66 168 57 231 65 505 66 l240 1 200 -40z m2366 -176 c34 -10 59 -69 56
-130 -3 -53 -5 -58 -43 -85 -39 -28 -43 -29 -92 -19 -42 9 -56 18 -78 50 -24
35 -26 45 -20 89 6 44 12 54 48 81 42 31 63 33 129 14z m745 -318 c35 -12 64
-31 92 -61 39 -43 41 -47 41 -111 0 -62 -3 -70 -37 -113 -54 -68 -60 -71 -136
-71 -67 0 -70 1 -127 48 l-59 47 0 90 -1 91 43 41 c38 38 96 65 122 59 6 -2
33 -11 62 -20z m2566 -237 c14 -8 17 -23 17 -77 l0 -68 -50 -18 -50 -18 -40
32 c-35 28 -40 37 -36 61 4 16 9 42 12 59 3 16 13 34 22 40 18 11 96 4 125
-11z m-1341 -66 c41 -43 47 -56 57 -116 12 -67 11 -69 -18 -120 -44 -77 -66
-94 -141 -105 -63 -9 -67 -8 -131 24 -87 43 -99 63 -99 165 l0 81 48 59 47 59
95 0 96 0 46 -47z"/>
<path d="M9977 15941 c-140 -160 -228 -291 -270 -399 l-38 -98 3 -180 3 -180
57 -95 c74 -121 142 -178 260 -218 l84 -28 92 41 c85 38 98 47 162 121 49 57
79 104 105 164 l37 84 -4 151 -3 152 -60 124 c-73 150 -204 337 -283 403 -31
26 -59 47 -62 47 -3 0 -40 -40 -83 -89z"/>
<path d="M8581 15563 c-59 -225 -71 -302 -71 -445 0 -172 10 -209 96 -353 65
-109 115 -151 246 -206 66 -29 78 -31 173 -27 l102 3 64 56 c56 49 70 69 103
145 38 87 38 88 34 203 l-3 116 -55 98 c-46 84 -67 109 -149 183 -84 75 -117
96 -261 169 -112 56 -182 85 -217 90 l-52 7 -10 -39z"/>
<path d="M11340 15544 c-63 -30 -165 -86 -225 -124 -99 -62 -117 -78 -171
-152 -86 -117 -134 -253 -134 -378 0 -164 56 -273 172 -331 53 -27 66 -29 165
-29 85 0 117 5 151 20 64 29 128 85 192 170 51 67 63 92 99 209 l41 132 -11
130 c-8 90 -22 172 -48 267 l-36 137 -40 2 c-30 1 -68 -11 -155 -53z"/>
<path d="M7711 15158 c-5 -29 -13 -114 -16 -188 -6 -132 -6 -137 24 -223 25
-73 41 -100 91 -157 53 -60 69 -71 134 -95 75 -27 122 -29 228 -9 46 9 85 90
93 194 6 78 4 92 -24 173 -44 129 -98 190 -221 252 -76 38 -260 104 -292 105
-4 0 -11 -24 -17 -52z"/>
<path d="M12222 15150 c-124 -51 -152 -67 -213 -121 -52 -46 -79 -80 -105
-130 -34 -68 -34 -70 -34 -199 l0 -131 46 -49 47 -50 89 0 c83 0 93 2 167 39
95 48 146 105 184 206 25 66 27 81 26 225 -1 85 -4 180 -7 210 -6 50 -9 55
-32 57 -14 1 -89 -25 -168 -57z"/>
<path d="M7035 14836 c-4 -12 -9 -85 -12 -164 l-6 -142 39 -90 c33 -75 43 -90
62 -90 15 0 22 -6 22 -19 0 -12 18 -30 50 -50 48 -29 56 -31 154 -31 l104 0
21 62 c16 48 21 86 21 167 -1 116 -2 120 -70 204 -36 44 -62 63 -130 96 -47
23 -122 50 -167 60 l-81 18 -7 -21z"/>
<path d="M12915 14809 c-69 -31 -128 -67 -165 -99 -50 -44 -63 -62 -89 -130
-29 -78 -30 -79 -19 -182 11 -119 34 -171 71 -163 12 3 64 12 116 20 127 22
171 55 230 173 l41 82 0 164 0 164 -39 10 c-37 9 -48 6 -146 -39z"/>
<path d="M9440 14518 c-5 -13 -18 -72 -28 -133 -15 -93 -16 -127 -7 -220 10
-98 15 -119 52 -190 39 -76 46 -84 125 -137 71 -47 96 -58 153 -67 38 -5 70
-9 71 -8 1 1 18 35 38 74 35 71 36 75 36 193 0 137 -11 170 -92 267 -77 92
-281 243 -329 243 -5 0 -14 -10 -19 -22z"/>
<path d="M10540 14484 c-116 -77 -212 -173 -261 -260 -38 -70 -39 -74 -39
-170 0 -80 5 -114 26 -179 15 -44 30 -84 34 -88 4 -5 25 -13 46 -18 34 -8 50
-4 127 29 117 49 181 117 227 243 30 80 31 90 27 199 -2 63 -12 157 -22 208
l-18 92 -31 0 c-21 0 -58 -18 -116 -56z"/>
<path d="M6394 14328 l-64 -61 0 -73 c0 -90 9 -109 70 -156 45 -36 52 -38 119
-38 92 0 133 20 171 82 25 40 30 59 30 113 0 87 -19 122 -87 163 -45 26 -65
32 -115 32 -60 0 -60 0 -124 -62z"/>
<path d="M13517 14369 c-22 -11 -50 -40 -67 -67 -26 -41 -30 -57 -30 -120 0
-73 0 -74 47 -128 l47 -54 83 0 c106 0 140 16 181 85 26 43 32 64 32 109 0 79
-23 120 -91 162 -68 41 -140 46 -202 13z"/>
<path d="M7244 13863 c4 -44 25 -138 48 -217 40 -133 45 -143 101 -208 48 -55
76 -77 138 -109 l79 -39 123 0 c99 0 135 4 185 21 l62 21 0 134 0 134 -40 80
c-38 75 -44 82 -127 138 -85 57 -94 60 -233 91 -108 23 -170 31 -244 31 l-98
0 6 -77z"/>
<path d="M12580 13915 c-205 -41 -310 -105 -393 -240 l-48 -76 3 -136 3 -136
50 -18 c37 -13 83 -18 183 -18 l132 -1 79 39 c107 55 166 123 219 257 37 91
41 111 47 227 l8 127 -84 -1 c-46 -1 -136 -11 -199 -24z"/>
<path d="M6145 13529 c-11 -17 5 -126 37 -259 25 -102 43 -149 99 -257 64
-121 76 -137 157 -211 78 -71 100 -85 190 -121 100 -40 105 -41 225 -41 132 0
192 11 306 54 l73 29 -4 161 -4 161 -43 100 c-37 84 -55 111 -113 171 -94 96
-205 158 -353 195 -105 27 -121 29 -337 29 -148 0 -229 -4 -233 -11z"/>
<path d="M13428 13509 c-223 -54 -352 -148 -454 -329 -47 -85 -47 -86 -67
-253 l-20 -168 29 -29 c21 -21 58 -38 129 -60 85 -25 117 -30 210 -30 104 0
116 2 225 42 100 36 124 49 184 102 84 74 172 203 221 322 40 98 100 371 91
410 l-6 24 -213 -1 c-197 -1 -220 -3 -329 -30z"/>
<path d="M8690 13278 c1 -85 20 -232 35 -280 10 -29 45 -90 78 -135 58 -79 62
-82 153 -122 84 -37 100 -41 177 -41 l85 0 6 31 c3 17 6 84 6 148 0 138 -10
164 -94 263 -53 62 -63 69 -159 107 -69 27 -125 42 -172 46 -38 3 -80 8 -92
11 -20 4 -23 0 -23 -28z"/>
<path d="M11254 13289 c-92 -24 -196 -84 -260 -151 -68 -70 -104 -173 -104
-294 0 -123 5 -139 48 -152 28 -8 56 -8 112 3 100 18 128 31 211 100 59 49 78
73 111 140 37 72 42 91 49 185 4 58 8 124 8 148 l1 42 -52 -1 c-29 0 -85 -9
-124 -20z"/>
<path d="M7530 13002 c0 -121 23 -184 97 -271 49 -57 69 -72 133 -99 61 -26
89 -32 146 -32 41 0 75 5 82 12 15 15 16 139 2 190 -6 21 -28 68 -50 105 -52
90 -99 116 -274 155 -71 15 -131 28 -133 28 -2 0 -3 -40 -3 -88z"/>
<path d="M12408 13052 c-118 -35 -131 -41 -176 -85 -41 -41 -52 -61 -80 -145
-22 -68 -32 -117 -32 -160 l0 -62 88 0 c118 0 155 12 233 79 63 53 69 62 108
159 35 88 41 114 41 178 l0 74 -27 -1 c-16 0 -85 -17 -155 -37z"/>
<path d="M7408 12422 c-84 -32 -163 -83 -147 -95 49 -41 139 -97 229 -142
l114 -57 110 4 111 4 140 62 c177 79 172 76 156 96 -31 37 -133 95 -229 129
-101 36 -106 37 -245 36 -138 0 -144 -1 -239 -37z"/>
<path d="M12315 12449 c-16 -5 -88 -40 -160 -77 -112 -58 -130 -71 -133 -93
-3 -25 4 -29 150 -88 152 -61 153 -61 255 -61 126 0 155 11 325 115 67 43 125
79 127 81 15 14 -59 60 -153 95 -106 39 -109 39 -244 38 -75 0 -150 -5 -167
-10z"/>
<path d="M6765 12175 c-49 -7 -115 -21 -145 -30 -78 -24 -229 -102 -378 -194
-104 -65 -131 -87 -145 -117 -10 -20 -14 -40 -10 -44 4 -4 51 -41 103 -82 220
-174 464 -278 648 -278 80 0 102 4 195 38 182 67 270 162 289 309 9 73 8 82
-15 133 -34 77 -100 153 -172 200 -48 31 -82 44 -159 60 -54 11 -103 20 -110
19 -6 -1 -51 -7 -101 -14z"/>
<path d="M13075 12147 c-101 -38 -163 -87 -217 -172 l-48 -75 1 -93 0 -92 48
-75 c63 -99 131 -148 256 -184 236 -68 447 -7 777 222 127 89 167 122 168 139
0 35 -337 242 -496 304 l-125 49 -152 -1 c-132 0 -160 -3 -212 -22z"/>
<path d="M7617 11410 c-119 -38 -252 -126 -328 -218 -84 -100 -184 -292 -209
-397 -11 -47 -20 -88 -20 -90 0 -13 58 -29 197 -56 121 -22 184 -29 282 -29
148 0 202 12 331 70 85 38 105 52 197 143 85 83 107 112 136 176 30 65 36 91
42 176 l6 100 -43 42 c-32 32 -67 51 -138 78 -92 34 -99 35 -230 34 -119 -1
-145 -4 -223 -29z"/>
<path d="M12073 11400 c-62 -21 -128 -50 -147 -65 l-36 -27 0 -110 c0 -104 2
-114 36 -191 28 -65 50 -97 107 -155 97 -100 168 -146 294 -193 103 -38 110
-39 232 -39 69 0 167 7 216 15 91 15 294 60 301 67 10 11 -46 158 -104 273
-113 227 -277 385 -453 439 -75 22 -104 26 -210 25 -117 0 -131 -3 -236 -39z"/>
<path d="M6369 11140 c-9 -5 -35 -34 -58 -63 -37 -49 -41 -59 -41 -113 0 -58
0 -58 57 -111 l57 -53 71 0 71 0 47 48 47 48 0 80 0 81 -57 46 c-55 44 -61 47
-118 47 -33 0 -67 -5 -76 -10z"/>
<path d="M13567 11102 l-47 -48 0 -80 0 -80 48 -47 48 -47 74 0 c41 0 80 4 86
8 6 4 29 31 52 60 38 48 42 59 42 109 0 68 -7 81 -71 132 -49 39 -55 41 -118
41 -66 0 -67 0 -114 -48z"/>
<path d="M11152 11098 c-15 -15 -17 -294 -2 -334 6 -15 38 -58 72 -96 50 -57
78 -78 152 -116 86 -44 97 -47 214 -57 l122 -11 0 136 c0 74 -5 153 -11 175
-6 22 -36 79 -67 127 -56 84 -58 87 -142 127 -65 31 -101 42 -155 46 -38 3
-93 8 -120 11 -33 3 -54 1 -63 -8z"/>
<path d="M8665 11068 c-53 -17 -68 -29 -126 -96 -57 -67 -70 -89 -98 -173 -29
-88 -31 -105 -29 -205 l3 -109 71 -3 c61 -2 85 2 183 38 152 54 212 103 270
218 l41 82 0 135 0 135 -127 -1 c-99 -1 -142 -6 -188 -21z"/>
<path d="M5287 5448 l-47 -10 42 -52 c96 -116 241 -256 265 -256 17 0 23 -6
23 -22 1 -33 461 -391 749 -584 459 -306 807 -493 1316 -706 576 -241 1263
-414 1895 -477 168 -17 275 -21 589 -21 l383 0 326 41 c364 45 665 108 1053
219 541 156 1226 473 1716 796 468 308 643 441 978 743 44 40 97 85 117 99 22
16 38 35 38 48 0 13 13 26 39 40 22 10 60 44 85 74 l45 55 -47 12 c-26 6 -105
12 -177 12 -111 1 -163 -5 -355 -39 -412 -75 -636 -167 -1074 -444 -132 -84
-315 -193 -406 -243 -314 -173 -831 -382 -1170 -473 -389 -104 -875 -160
-1399 -160 -207 0 -291 5 -526 31 -548 59 -1045 165 -1698 360 -685 205 -845
273 -1260 536 -349 221 -632 340 -963 403 -141 26 -180 30 -325 29 -90 -1
-185 -6 -212 -11z"/>
</g>
</svg>
