<svg xmlns="http://www.w3.org/2000/svg" viewBox="340 324 1308 1388" version="1.1" style="max-height: 500px" width="1308" height="1388">
<path fill="#04253B" d="m0 0h59l43 3 26 3 41 8 32 8 26 8 29 10 35 14 15 7 17 8 19 10 23 13 23 14 16 11 17 12 17 13 11 9 13 11 13 12 14 14 7 6 7 8 12 12 7 8 12 14 11 14 10 13 16 23 15 23 11 19 12 22 15 30 11 26 9 24 7 24 3 21v9l-3 16-8 14-9 10-10 8-18 7-8 1-407 1-15 3-15 6-10 6-11 9-14 14-8 7-9 9-12 9-12 6-17 5-12 2-44 1-15 3-14 7-11 9-8 8-5 8-3 12-1 9v9l2 16 5 13 7 11 8 10 10 7 4 2h63l15-2 15-5 15-9 10-9 7-9 10-16 14-25 12-19 8-11 9-10 8-6 15-8 16-4 9-1h220l103-1 5-1h55l16 4 9 4 11 8 7 8 8 15 3 16-1 14-4 12-7 11-10 10-10 6-10 4-14 2h-24l-3 10-11 15-8 10-7 10-8 10-5 6 5 5 12 9 11 11 8 14 2 3 40 1 11 4 13 9 10 11 7 14 2 8 1 13-2 17-5 16-8 22-13 30-18 36-13 23-12 19-10 15-10 14-8 11-13 16-11 13-9 11-7 7-1 2h-2l-2 4-25 25-8 7-10 9-11 9-17 14-16 12-17 12-18 12-25 15-25 14-11 6-21 10-18 8-19 8-24 9-18 6-24 7-33 8-34 7-44 6-23 2-20 1h-39l-24-1-34-4-33-5-35-8-30-8-25-8-24-9-21-8-20-9-30-14-22-12-21-12-19-12-24-16-14-10-10-8-13-11-11-9-15-14-10-9-17-17-7-8-15-16-9-11-12-14-12-16-14-20-16-25-12-21-15-29-11-23-11-27-12-35-9-34-7-33-4-29v-18l4-23 5-14 8-15 10-13 12-12 12-9 15-8 13-5 15-3h14l-1-3-13-3-17-4-18-7-16-10-12-11-8-9-9-14-7-14-4-13-3-19v-19l5-40 10-44 8-27 9-26 13-32 14-29 7-14 9-16 10-16 12-19 13-19 14-19 11-14 9-11 13-15 7-8h2l2-4 27-27 8-7 15-13 17-14 16-12 23-16 22-14 24-14 24-13 22-11 44-19 22-8 26-8 25-7 36-8 37-7 38-3zm23 71-33 1-29 3-40 7-38 9-26 8-21 7-21 8-33 15-22 11-23 13-11 7-20 13-16 11-13 10-16 13-11 9-15 14-8 7-12 12-7 8-9 9-9 11-8 9-11 14-12 16-10 15-13 20-14 25-10 19-13 29-12 31-7 21-10 36-4 17-2 15v15l4 12 9 10 11 5 3 1h9l11-4 6-4 7-8 4-10 5-24 6-24 9-28 10-28 9-22 12-25 12-22 10-16 8-11 11-16 11-14 11-13 7-8 14-15 17-17 8-7 10-9 17-13 14-11 19-13 21-13 23-13 16-8 15-7 19-8 20-8 21-7 24-6 22-5 27-5 57-5h41l28 2 35 4 39 8 31 9 25 9 29 12 23 11 16 9 22 13 22 15 16 12 14 11 11 9 13 11 13 12 11 11 7 8 11 13 9 11 11 15 1 3-6 1h-15l-16 1-15 3-14 7-10 9-7 8-7 14-3 10-1 11 2 15 5 12 7 9 8 7 13 5 6 1h144l12-3 9-6 6-7 3-11v-14l-4-14-11-23-8-14-15-25-14-21-10-14-10-13-9-11-11-13-11-12-14-15-16-15-13-12-11-9-16-13-19-14-17-12-14-9-20-12-21-12-16-8-24-11-31-12-33-11-31-8-26-6-43-7-25-2zm-33 148-10 2-8 4-8 7-7 11-3 10v14l3 12 6 10 9 8 8 4 19 2 91-1 9-3 9-6 7-8 5-11 1-4v-18l-4-11-5-8-7-7-8-5-12-2zm-83 86-13 3-9 6-7 7-4 8-2 7v14l4 12 7 11 6 5 8 3 4 1h53l10-4 8-7 7-10 2-7 1-7v-9l-3-11-6-9-8-7-8-4-9-2zm-171 232-13 1-12 4-10 9-5 12-1 4v11l4 11 6 8 5 5 6 4 14 3h116l11-1 16-4 12-6 9-7 7-6 11-15 8-15 6-15 1-3zm-246 232-14 7-7 7-4 8-1 4v17l5 25 6 24 8 26 11 30 13 29 13 26 14 24 14 22 13 18 9 12 9 11 13 15 12 13 6 7h2l2 4 4 4h2l1 3 8 7 8 8 11 9 10 9 17 13 18 13 12 8 13 9 28 17 14 8 16 8 17 8 21 9 21 8 36 12 26 7 22 5 27 5 33 4 25 2h61l22-2 25-3 20-3 32-7 18-5 17-5 21-7 20-7 21-9 15-6 16-8 17-9 17-10 23-14 23-16 32-24 13-11 8-7 10-9 8-8 8-7 16-16 7-8 7-7 7-8 9-10 11-14 6-10 4-10 1-9-3-10-6-8-11-7-17-1h-348l-13 1-10 5-8 7-6 10-2 6-1 11 2 13 5 10 8 8 13 6 10 1h212l9 3 5 5 4 9-1 8-7 11-14 11-14 10-19 12-19 11-10 6-16 8-15 7-19 8-21 8-19 7-22 7-24 6-49 8-21 2-16 1h-57l-26-2-47-8-36-9-35-12-28-11-17-8-19-10-24-13-22-14-16-11-21-16-13-11-10-9-8-7-12-11-18-18-7-8-11-13-11-14-12-16-18-27-12-21-12-24-11-27-9-27-7-24-7-30-3-14-7-11-8-6-9-4zm502 287-13 3-12 7-8 9-4 8-2 10 1 13 3 10 6 9 8 7 7 3 6 1h103l11-2 11-6 6-8 5-11 1-5v-15l-4-11-6-8-9-8-10-5-7-1z" transform="translate(968,345)"/>
<path fill="#1099CA" d="m0 0h55l16 4 9 4 11 8 7 8 8 15 3 16-1 14-4 12-7 11-10 10-10 6-10 4-14 2h-24l-3 10-11 15-8 10-7 10-8 10-5 6 5 5 12 9 11 11 8 14v2l-13 2h-9v2l5 1 10 4 9 7v2h2l6 10 4 13v10l-5 13-7 8-14 6-6 1-475 1-16 3-14 8-7 6-7 9-2 7-1 8v16l2 10 4 8 2 2h66l13 2v3l-9 6-6 8-4 10-1 11 2 13 5 10 7 7 13 6 10 1h167v1l-18 1-5 5-11 8-22 12-12 6-10 4-28 12-12 5-13 4-8 3-13 4-18 5-13 1h-3l-1-4 7-14 1-5v-15l-4-11-6-8-8-7-10-5-7-1h-93l-13 3-12 7-7 8-4 8-2 10 1 13 3 10 6 10-2 2h-8l-18-3-30-8-29-10-18-7-18-8-42-22-9-6-14-7-12-9-5-4-13-10-13-11-16-15-12-12-7-8-10-11-11-14-12-16-17-26-12-22-8-14-8-17-5-13-6-14-7-24-4-15-5-25-1-2-4-41v-12l1-2 6-1h270l14-2 12-3 8-4 14-10 4-4h2l2-4 12-12 7-9 11-12 3-3h3l-2 18v9l2 16 5 13 7 11 8 10 10 7 4 2h63l15-2 15-5 15-9 10-9 7-9 10-16 14-25 12-19 8-11 9-10 8-6 15-8 16-4 9-1h220l103-1z" transform="translate(1513,951)"/>
<path fill="#04253B" d="m0 0h55l16 4 9 4 11 8 7 8 8 15 3 16-1 14-4 12-7 11-10 10-10 6-10 4-14 2h-101l-254 1-14 2-18 7-11 7-9 7-25 25-9 11-11 12-10 8-14 14-7 8-6 3-53 1-28 1-23 5-12 6-11 8-9 9-8 13-6 15-1 4v32l4 13 5 12 9 12 12 10 19 10 10 4v1h-112l-96-1-9-4-10-8-8-10-5-10-3-9-1-12 3-21 4-11 7-12 9-11 13-10 12-7 18-5 20-3 10-2 16-8 11-7 16-16 8-10 10-13 12-14 16-16 11-8 11-7 5-2 1-2h68l15-2 15-5 15-9 10-9 7-9 10-16 14-25 12-19 8-11 9-10 8-6 15-8 16-4 9-1h220l103-1z" transform="translate(1513,951)"/>
<path fill="#259FF5" d="m0 0h21v2h2l1 3-8 10-4 10-1 4v14l3 12 6 10 8 7 8 4 19 2 91-1 9-3 9-6 6-7 5-11 1-4v-18l-4-11-5-8-6-7 5-2h7l18 3 17 4 48 16 11 5 16 7 16 8 15 8 11 6 18 11 17 10 4 2 75 1h16l9-1 9 10 20 25 5 9-3 2h-19l-16 1-15 3-14 7-10 9-6 7-7 14-3 10-1 8-1-2-4-1-12-11-10-6-16-5-9-1-331-1-3-3 5-4 8-9 4-7 2-12v-9l-3-11-6-9-7-6-8-4-9-2h-41l-13 3-9 6-7 8-4 9-1 4v14l4 12 7 11 5 5-5 3-37 1h-148l-12-1-4-2-1-3 6-8 7-8h2v-2h2l2-4h2l2-4 28-28 11-9 9-7 14-8 17-11 11-6 14-9 32-16 14-6 20-8 39-12z" transform="translate(912,569)"/>
<path fill="#3CDCA7" d="m0 0h372l13 2 10 5 10 12 3 9v13l-2 9-7 11-5 5-7 5-7 3-11 2-118 1-191 1-13 1-12 4-9 8-5 12-1 4v11l4 11 6 8 5 5 8 4 11 2h65l45 1v1l-9 3-10 6-16 11-7 6h-2l-2 4-23 23h-2l-1 3-16 9-16 5-14 2h-15l-10-2h-87l-15-1-4-5-1-5v-21l1-18 1-11v-22l5-24 4-20 5-23 6-21 5-13 7-13 9-10 10-7 11-4z" transform="translate(644,805)"/>
<path fill="#3BDBA7" d="m0 0 4 2 26 1h374l22 2 12 4 11 7 6 7 7 14v15l-3 7-5 8-10 7-9 3-15 1h-116l-355 1-14 5-10 6-3 1v2h-2l-2 4-4 5-3 5-3 14v17l3 11 2 5-1 4h-10l-6-2-9-2-17-9-14-12-9-13-7-18-1-5v-32l3-10 4-9 9-14 11-11 13-8 8-4 13-3 13-1 74-1 10-2z" transform="translate(1086,1167)"/>
<path fill="#259FF5" d="m0 0h3l-2 18v9l2 16 5 14h-4l-2 9-10 15-3 4 2-2 5 1 2 8-2 1-2 11h-2l-1 5-8 12h-2v4h-2l-2 5-9 11-3 3-10 13-8 7-6 8-8 6-11 6-4 2-1 2-20 3-28 2-22 1h-173l-10-2-3-3-4-7-8-30-2-5-2-20-1-5h-2l1-4-2-3-1-14v-30l3-4 6-1 266-1 12-3 15-6 16-11 5-5h2l2-4 12-12 7-9 11-12z" transform="translate(922 1e3)"/>
<path fill="#259FF5" d="m0 0h3l8 10 14 15 14 12 11 7v2l9 2 15 11 18 8 14 3 30 3 118 1h25l68-1h44l50 2 5 3 2 3-3 4h-2l1 24 2 13 5 10 7 7 13 6 10 1h167v1l-18 1-5 5-11 8-22 12-12 6-10 4-28 12-12 5-13 4-8 3-13 4-18 5-13 1h-3l-1-4 7-14 1-5v-15l-4-11-6-8-8-7-10-5-7-1h-93l-12 2-1-1h-33l-163-1-6-2-18-13-8-6-11-9-14-15-20-20-3-4v-2l-3-1-7-8-10-12-5-7v-2h-2l-9-13-4-8-3-3-6-11-5-8 1-2z" transform="translate(619,1255)"/>
<path fill="#259FF5" d="m0 0h55v1l-52 1 13 4 10 8 6 10 4 13v11l-4 10-9 10-12 6-9 2-157 1h-204l-19 2-16 6-13 7-11 7-9 6-4 1 8-14 8-13 10-18 12-19 8-11 9-10 8-6 15-8 16-4 9-1h220l103-1z" transform="translate(1513,951)"/>
<path fill="#1360AC" d="m0 0h372l13 2 10 5 10 12 3 9v13l-2 9-7 11-5 5-7 5-7 3-11 2-119 1v-2l27-1 92-1 14-3 10-7 6-6 5-11 1-4v-15l-5-10-8-9-9-4-12-1h-377l-15 1-11 4-11 9-3 1-2 4-6 9-7 18-6 20-5 23-3 14h3l2-4 12-11 14-7 12-4 23-3h34l16 2-3 3-7 4-6 7-4 10-1 4v11l4 11 6 8 5 5 8 4 11 2h65l45 1v1l-9 3-10 6-16 11-7 6h-2l-2 4-23 23h-2l-1 3-16 9-16 5-14 2h-15l-10-2h-87l-15-1-4-5-1-5v-21l1-18 1-11v-22l5-24 4-20 5-23 6-21 5-13 7-13 9-10 10-7 11-4z" transform="translate(644,805)"/>
<path fill="#AAE2F0" d="m0 0h3l-2 18v9l2 16 5 14h-4l-2 9-10 15-10 11-16 12-12 7-23 7-6 1-17 1h-257l-7-1-3-4-1-14v-30l3-4 6-1 266-1 12-3 15-6 16-11 5-5h2l2-4 12-12 7-9 11-12z" transform="translate(922 1e3)"/>
<path fill="#AAE2F0" d="m0 0h307l24 1-2 7-11 15-12 15-5 2-6 4-17 5-9 3-6 1-306 1-12 2-15 5-12 6-12 7-3-1 7-8 8-8 7-8 14-15 5-6 8-7 11-9 12-6 10-4z" transform="translate(1210,1067)"/>
<path fill="#1360AC" d="m0 0 2 2 5 26 6 20 5 16 4 8 3 2h159l1 3-2 1-13 1-11 4-11 6-13 11-11 11-8 14-2 6-3 16-2 23-3 2-5-3-8-6-5-5-10-9v-2h-2v-2h-2l-9-11-9-12v-2h-2l-3-5-3-3-6-8-5-5h-2l2 7 8 16 10 18 9 14 10 16 14 18 9 11 9 10 7 8 15 16 8 7 11 10 10 8 16 12 11 8 5 1 170 1h26v3l-12 7-7 8-4 8-2 10 1 13 3 10 6 10-2 2h-8l-18-3-30-8-29-10-18-7-18-8-42-22-9-6-14-7-12-9-5-4-13-10-13-11-16-15-12-12-7-8-10-11-11-14-12-16-17-26-12-22-8-14-8-17-5-13-6-14-7-24-4-15-4-21z" transform="translate(562,1122)"/>
<path fill="#259FF5" d="m0 0h106l14 2 6 2-5 4-8 7-5 7-3 10v14l4 12 7 11 2 3-1 2-3 1h-180l-11-1-3-1 1-4 4-6 13-13 1-2h2l2-4 28-28 8-7 9-6z" transform="translate(736,649)"/>
<path fill="#1360AC" d="m0 0h21v2h2l1 3-8 10-4 10-1 4v14l3 12 6 10 8 7 8 4 4 1-2 5-12 1-1 4-4 1-8-4-9-2h-41l-10 2h-7l-7-2-17-1h-98l-12 3-9 6-17 16-20 20-1 2h-2l-2 4-13 13-4 8 14 1h183v-2l4 2-5 3-37 1h-148l-12-1-4-2-1-3 6-8 7-8h2v-2h2l2-4h2l2-4 28-28 11-9 9-7 14-8 17-11 11-6 14-9 32-16 14-6 20-8 39-12z" transform="translate(912,569)"/>
<path fill="#1360AC" d="m0 0h7l18 3 17 4 48 16 11 5 16 7 16 8 15 8 11 6 18 11 17 10 4 2 75 1h16l9-1 1 4h-89l-38-2-149-1-17-1h-20l-8 1v-2l16-8 8-7 7-14 1-4v-18l-4-11-5-8-6-7z" transform="translate(1078,569)"/>
<path fill="#197CC3" d="m0 0 5 1 9 13 5 6 10 7 2 2h-3l-1 3-12 6-13 10-8 7-13 13-9 11-10 13-9 11-15 15-14 9-13 6-10 2-20 3-18 5-15 9-12 10-8 11-8 16-3 16-1 10 1 11 6 16 9 12 11 9 8 3 96 1h111l-6-2 4-1 6 2 7 1-4 2-77 1h-50l-102-1-17-4-9-4-15-2-7-3-5-5-6-8 1-6 3-12 5-2 2 1 2 13 10-1h2l1-5v-9l-1-4-8 1-6 1-3-3-2-10v-7l5-13 6-8h3l1-9-4 1v-6l-7 3v-2l-7 1-10 7-4 5-5 5-4 7-3 7-3 20-1 21-5 2-3-1v-2l-5-2-13-11-3-2v-2h-2v-2l-4-2-7-8-5-5-11-13-8-10v-2h-3l3 9-1 3-9-17-4-9 1-3 4 2 1 3 4 2 5 7v2l3 1 2 5h2l9 13 9 10v2h2v2h2l4 5 3 2v2l4 2 1 3 4 2 7 5 6 3 1-1 2-23 4-21 6-9 4-7 15-15 14-10 13-6 4-1 15-1-1-2h-159l-5-4-6-15-6-22-3-12-4-22h-2l-1-2-4-41v-12l1-2 6-1h270l14-2 6-1-4 3-12 3-266 1-7 2-1 2v30l1 14 2 4h-2v3h2l2 5 2 20 5 16 5 19 4 7v2l15 2h170l22-1 28-2 13-2h7l1-3 11-6 9-6 5-4 4-6 8-7 7-9 4-6 5-5 8-11h2v-4l3-3 7-10 1-4h2l1-12 2-1v-4l-2-1 1-2h-5l-4 2 6-8 8-12z" transform="translate(926,1058)"/>
<path fill="#1361AC" d="m0 0 7 1 5 2 10 1h167v1l-18 1-5 5-11 8-22 12-12 6-10 4-28 12-12 5-13 4-8 3-13 4-18 5-13 1h-3l-1-4 7-14 1-5v-15l-4-11-6-8-8-7-6-4v-2l10-1z" transform="translate(1078,1397)"/>
<path fill="#1097CB" d="m0 0h34l16 2-3 3-7 4-6 7-4 10-1 4v11l4 11 6 8 5 5 1 4h-2v2l-2 1h-10l-15 1h-65l-11-1-11-4-2-2 1-9 4-13 1-2v-11l1-2h3l2-4 12-11 14-7 12-4z" transform="translate(635,882)"/>
<path fill="#218BD7" d="m0 0 4 2 6-2 1 4-1 2 4-1v7l-1 2h-3l-2 4-3 4-5 13 1 14 3 5 11-2 3 1 2 4v9l-2 7-5-1-4 1-3-1-2-13-7 1-1 10-2 4 1 6 6 7v2l4 2 6 2 15 2 12 5 14 3 102 1h50l77-1 7-2 2-2 1 3 3 1 67 1 8 3-5 5-6 8-4 10-2 4v-17l4-4-4-4-2-1-50-2h-44l-68 1h-46l-97-1-37-4-12-4-16-8-12-9-9-3v-2l-5-2-13-10-15-14-10-11-4-5v-2h-3l-1 3 10 16 1 5 3 1 6 11 6 8v2h2l10 14 8 9v2l4 2 9 11 9 9v2l4 2v2l4 2 10 10h-3l-9-9-8-7-24-26-22-28-10-15-8-13-7-11-3-5-2-7-1-8-2-1 5 1 7 9 9 11 6 7v2l3 1 7 8 3 2v2h2l5 5 12 10 4 2v2l6-1 1-2 1-19 3-20 5-11 6-8h2l1-3h2l2-4 9-6z" transform="translate(710,1223)"/>
<path fill="#218BD7" d="m0 0h17l15 1 2 2 4 1 1 3-2 3h-2v2l-11 9-10 8-5 6-5 5h-2l-2 4-5 4-7 8-16 9-10 3-3 1-7 1h-20l-2-4 8-11h2l2-5 5-9 3-4h2l1-4 10-10h2l2-4h2l2-4 10-7 17-6h2z" transform="translate(746,953)"/>
<path fill="#2088D3" d="m0 0h55v1l-52 1 13 4 10 8 6 10 4 13v11l-4 10-9 10-12 6-9 2-157 1h-204l-19 2-16 6-13 7-11 7-9 6-4 1 8-14 4-4 3 1 2-3 1 2h7l1-2 12-7 2-2 6-2v-1l15-3h293l81-1 9-3 4-1v-2l6-2 2-6 3-5 2-8v-8l-5-12-7-7-6-4-16-5-9-2-12-1v-1l20-2z" transform="translate(1513,951)"/>
<path fill="#1D83CD" d="m0 0h2l-1 4-5 8-6 15-2 12-1-2-4-1-12-11-10-6-16-5-9-1-331-1-3-3 5-4 3-3h2l-1 4 36-1 47 1h240l13 2 13 4 14 7 7 1 6-3h2l1-5h2l1-5 4-1 1-5z" transform="translate(1328,715)"/>
<path fill="#218AD6" d="m0 0h106l14 2 6 2-5 4-8 7-2 2-3-1h2l-1-7-4-2-13-1h-16l-25-1h-55l-9 3-10 8-7 6-6 7-5 5-7 8-2 4-5 4-9 11-4 5-1 3 7 2h47l113-1 10-1 1-2 2 1-2-4-2-1v-2h-2l-3-17v-9h1l2 11 4 12 7 11 2 3-1 2-3 1h-180l-11-1-3-1 1-4 4-6 13-13 1-2h2l2-4 28-28 8-7 9-6z" transform="translate(736,649)"/>
<path fill="#1467B2" d="m0 0h372l13 2 10 5 10 12 3 9v13l-2 9-7 11-5 5-7 5-7 3-11 2-119 1v-2l27-1 92-1 14-3 10-7 6-6 5-11 1-4v-15l-5-10-8-9-9-4-12-1h-377l-15 1-11 4-11 9-3 1-2 4-6 9-7 18-6 20-5 23-3 16h-1v-10l6-28 6-21 5-13 7-13 9-10 10-7 11-4z" transform="translate(644,805)"/>
<path fill="#1299CA" d="m0 0 5 1 9 13 5 6 10 7 2 2h-3l-1 3-12 6-13 10-8 7-13 13-9 11-5 4-8 10-2-2 5-7 5-5 8-11h2v-4l3-3 7-10 1-4h2l1-12 2-1v-4l-2-1 1-2h-5l-4 2 6-8 8-12z" transform="translate(926,1058)"/>
<path fill="#1D86BB" d="m0 0h69l8 1-1 3h-331l-15 2-15 6-11 7-12 11-16 16-7 8-14 15-7 6-5 6h-2l-2 4-6 4-6 6-4 7-7 5-8 1-83 1v-1l6-1 28-1 53-1 6-3 15-16 3-3h2l1-3 11-9 12-13 9-11 26-26 15-10 14-6 11-3 9-1z" transform="translate(1465,1064)"/>
<path fill="#1360AC" d="m0 0h19v1l-11 1h-8v2l5 1 10 4 9 7v2h2l6 10 4 13v10l-5 13-7 8-14 6-6 1-475 1-16 3-14 8-7 6-7 9-2 7-1 8v16l2 10 4 8 2 2h66l13 2v3l-6 1-6-2-67-1-5-1 1-2-5-10-2-9v-17l4-16 9-12h2v-2l13-8 14-5 362-1h115l12-2 9-4 8-6 5-9 1-4v-15l-7-14-6-7-12-7-12-4-13-2 4-2z" transform="translate(1514,1167)"/>
<path fill="#1D84CD" d="m0 0 2 1-4 1v2l8-2h21l26 1 139 1 38 2h88 3l14 17 1 2-5-2-2-4h-2l-1-4h-2v-2l-4-2h-16l-28-1h-41l-38-2h-125l-69-2-78-1-3-2 20-1 53-1z" transform="translate(1058,646)"/>
<path fill="#197CC3" d="m0 0h17l15 1 2 2 4 1 1 3-2 3h-2v2l-11 9-10 8-5 6-5 5h-2l-2 4-5 4-7 8-16 9-10 3-3 1-7 1h-20l-2-4 8-11h2l2-5 5-9 3-4h2l1-4 10-10h2l2-4h2l2-4 4-3 2 1-6 5-7 8-2 3h-2l-2 4-4 7-2 1-4 7-5 7-4 11 2 1h12l11-3h4v-2l9-4h2v-2l5-3 4-5h2l2-4 8-8h2l2-4 7-8 3-3v-8l-3-2v-2l-17-2-10 1 3-2 11-4h2z" transform="translate(746,953)"/>
<path fill="#1360AC" d="m0 0h2v2h326l18 3 12 4 13 9 9 8 3 1v3l-4-1-12-11-10-6-16-5-9-1-331-1-3-3z" transform="translate(932,722)"/>
<path fill="#1360AC" d="m0 0h10v1l-17 3-15 5-13 8-12 10-8 11-8 16-3 16-1 10 1 11 6 16 9 12 11 9 8 3 96 1h111l-6-2 4-1 6 2 7 1-4 2-77 1h-50l-89-1-10-2-6-4-6-5-4-4-5-10v-2h-2l-3-14-1-2v-17l3-15 4-13 7-12 4-6 8-7 8-6 3-3 4-1-1-7 2-1h14l2-1z" transform="translate(809,1193)"/>
<path fill="#1360AC" d="m0 0 10 3 8 4 7 6 6 10 4 13v11l-4 10-9 10-12 6-9 2-157 1h-204l-19 2-16 6-13 7-11 7-9 6-4 1 2-4 7-5h2l5-3 21-12 16-6 14-2h286l82-1 12-4 6-4 5-5 3-4 3-8v-11l-3-9-5-10-8-8-10-4-10-3z" transform="translate(1514,952)"/>
<path fill="#1A7EBA" d="m0 0 3 1-11 4-5 1-266 1-7 2-1 2v30l1 14 2 4h-2l-1 4v-2h-2l-1-2-4-41v-12l1-2 6-1h270l14-2z" transform="translate(850,1061)"/>
<path fill="#228CD8" d="m0 0 8 4 5 5 12 9 5 4 3 1v2l5 2 8 4h33l121-1 45 1 7 3-2 2-6 1-1-1h-33l-163-1-6-2-18-13-8-6-11-9z" transform="translate(704,1367)"/>
<path fill="#1F87D2" d="m0 0h2l2 5 2 20 5 16 5 19 4 7v2l15 2h170l22-1 28-2 13-2h7l1-3 11-6 9-6 5-4 4-6 8-7 6-7 3-1 9-11v3l-10 13-12 13-9 9-14 9-13 6-10 2-18 1-3 1-32 1-16 1h-171l-5-4-6-15-6-22-3-12-3-16z" transform="translate(564,1123)"/>
<path fill="#1F86D1" d="m0 0 2 3 3 1 67 1 8 3-5 5-6 8-4 10-2 4v-17l4-4-4-4-2-1-50-2h-44l-68 1h-46l-76-1-1-2h139l77-1 7-2z" transform="translate(999,1322)"/>
<path fill="#1773BC" d="m0 0h164l11 4 6 5 8 11 2 7v13l-2 9-7 11-5 5-7 5-7 3-11 2-119 1v-2l27-1 92-1 14-3 10-7 6-6 5-11 1-4v-15l-5-10-8-9-9-4-12-1h-262v-1z" transform="translate(861,806)"/>
<path fill="#1F86CF" d="m0 0h2l-1 4-5 8-6 15-2 12h-1v-5l-4-1-9-8-12-8-17-5-13-2h-170l3-2h171l15 3h7l8 4 11 5 6-1 6-2 1-5h2l1-5 4-1 1-5z" transform="translate(1328,715)"/>
<path fill="#228CD8" d="m0 0h1l2 11 4 12 6 9 1 5-6 2h-171v-2l30-1 129-1 10-1 1-2 2 1-2-4-2-1v-2h-2l-3-17z" transform="translate(838,684)"/>
<path fill="#1469B3" d="m0 0h19v1l-11 1h-8v2l5 1 10 4 9 7v2h2l6 10 4 13v10l-5 13-7 8-14 6-6 1h-104l-17-1v-1h115l12-2 9-4 8-6 5-9 1-4v-15l-7-14-6-7-12-7-12-4-13-2 4-2z" transform="translate(1514,1167)"/>
<path fill="#2187CF" d="m0 0h55v1l-54 1-2 1 14 4 6 4 7 7 7 14 1 5v11l-4 10-5 6-9 6-8 3h-4l1-3 8-3 4-1v-2l6-2 2-6 3-5 2-8v-8l-5-12-7-7-6-4-16-5-9-2-12-1v-1l20-2z" transform="translate(1513,951)"/>
<path fill="#1D84CE" d="m0 0h10l1 3-2 9-6 12-1 1-1 10 7 2v2l87-1 15-1v2l-2 1h-10l-15 1h-65l-11-1-11-4-2-2 1-9 4-13 1-2z" transform="translate(568,914)"/>
<path fill="#248ED8" d="m0 0h109l11 1 6 3-5 4-7 7-3-1h2l-1-7-4-2-13-1h-16l-25-1h-55l-9 3-10 8-4 2 6-7 8-6z" transform="translate(733,651)"/>
<path fill="#197CC3" d="m0 0v3l-7 8-5 5h-2l-2 4-10 10-1 2h-2v6l3 1 11 1h171l5-2-1-2 4 2-1 3-3 1h-180l-11-1-3-1 1-4 4-6 13-13 1-2h2l2-4z" transform="translate(690,682)"/>
<path fill="#228CD8" d="m0 0h168l13 2 7 3-3 1-15-3h-178v-2z" transform="translate(1094,721)"/>
<path fill="#1F87D1" d="m0 0h42l10 1v2l-44 1-17 3-15 6-19 11-5 3-4 1-4 3 2-4 6-10 4 1 2-3 1 2h7l1-2 12-7 2-2 6-2v-1z" transform="translate(1141,1022)"/>
<path fill="#1A7CBC" d="m0 0h69l8 1-1 3h-24l-107-1 1-2z" transform="translate(1465,1064)"/>
<path fill="#197CC3" d="m0 0h135l11 1v2l-5 1-1-1h-33l-163-1v-1z" transform="translate(807,1400)"/>
<path fill="#48A5DF" d="m0 0 23 1h78v1l-53 1h-20v2l-26 1-4 1-1 2-3 2-2 4-1 3-4-2-5-5 3-1 1-4 12-2z" transform="translate(952,646)"/>
<path fill="#228CD6" d="m0 0 4 4 7 8 5 4h-3l-1 3-4 2h-9l-1 2-10-2-21-2v-1l27-3 4-1 2-5 1-4z" transform="translate(1065,1381)"/>
<path fill="#1E85CF" d="m0 0 3 3 3 5 5 5 6 11v2l3 1 6 11 6 8v2h2l10 14 8 9v2l4 2 9 11 9 9v2l4 2v2l4 2 10 10h-3l-9-9-8-7-24-26-22-28-10-15-8-13-7-11z" transform="translate(612,1253)"/>
<path fill="#218BD7" d="m0 0 2 1-4 1v2l7-1 26 1 8 1v1h-36l-78-1-3-2 20-1 53-1z" transform="translate(1058,646)"/>
<path fill="#197CC3" d="m0 0h106l14 2 6 2-4 2-5-2-12-1h-108l-10 3-9 7-10 9-2-1 14-13 8-5z" transform="translate(736,649)"/>
<path fill="#1F87D2" d="m0 0v3l-10 13-12 13-9 9-14 9-13 6-10 2h-7l-1-2 13-2h7l1-3 11-6 9-6 5-4 4-6 8-7 6-7 3-1z" transform="translate(895,1138)"/>
<path fill="#166FB8" d="m0 0 2 1-6 7h-2l-2 4-6 4-6 6-4 7-7 5-8 1-83 1v-1l6-1 28-1 53-1 6-3 15-16 3-3h2l1-3z" transform="translate(1112,1137)"/>
<path fill="#2188D0" d="m0 0 5 5 12 14-2 1-5-4v-2h-2l-1-4h-2v-2l-4-2h-16l-27-1v-2h-37v-1l78-1z" transform="translate(1377,651)"/>
<path fill="#248DD9" d="m0 0h59l4 1 2 5-7 9-4 10-2 4v-17l4-4-4-4-2-1-50-2z" transform="translate(1010,1328)"/>
<path fill="#1C81CA" d="m0 0h2l2 5 2 20 5 16 5 19 4 7v2l6 2 1 1 67 1v1h-71l-5-4-6-15-6-22-3-12-3-16z" transform="translate(564,1123)"/>
<path fill="#1F87D1" d="m0 0 4 4 5 11 1 5v11l-4 10-5 6-9 6-8 3h-4l1-3 8-3 4-1v-2l6-2 2-6 3-5 2-8v-8l-4-11z" transform="translate(1537,968)"/>
<path fill="#228CD8" d="m0 0h102l8 1v1l-31 1-71-1-8-1z" transform="translate(1191,954)"/>
<path fill="#228CD8" d="m0 0h2l-1 4 36-1 47 1 5 1v1l-93 1 1-4z" transform="translate(938,717)"/>
<path fill="#197CC3" d="m0 0 2 3 3 1 67 1 8 3-2 3-4-1v-3l-159-1v-1l77-1 7-2z" transform="translate(999,1322)"/>
<path fill="#1360AC" d="m0 0 4 2 1 1h66l13 2v3l-6 1-6-2-67-1-5-1 1-2z" transform="translate(999,1321)"/>
<path fill="#1465B0" d="m0 0h10l11 4 6 5 8 11 2 7v13l-2 9-7 11-5 5-7 5-2-1 4-4 8-7 5-8 3-9v-15l-5-10-8-9-9-4-12-1z" transform="translate(1015,806)"/>
<path fill="#1A7CB8" d="m0 0h2l-1 5-5 2-9 9-11 14-18 18-7 6-12 8-7 3-4-1 16-8 10-8 17-17 7-8 9-10 7-8z" transform="translate(925,996)"/>
<path fill="#1468B2" d="m0 0 3 1-16 8-6 4-6 5-7 9-2 7-1 8v16l2 10 2 4v3h-2l-3-7-2-9v-17l4-16 9-12h2v-2l13-8z" transform="translate(1031,1246)"/>
<path fill="#228CD8" d="m0 0h56l1 3h-58l-9 3-10 8-4 2 6-7 8-6z" transform="translate(733,651)"/>
<path fill="#1360AC" d="m0 0 6 1-3 1-1 3-12 6-13 10-8 7-13 13-9 11-2 1 2-4 10-13 14-14 8-6h2v-2l13-8 6-5z" transform="translate(951,1085)"/>
<path fill="#1B7EC4" d="m0 0 2 1-4 1v2h-76v-1l20-1 53-1z" transform="translate(1058,646)"/>
<path fill="#197CC3" d="m0 0 6 3 1 4-4 9-4 8-1 9 4 4-6-1-2-2 1-9 4-13 1-2z" transform="translate(568,914)"/>
<path fill="#2496D1" d="m0 0h2l-2 5-9 11-4 1-5-2 1-3-2-1h4l-1-3 9-3z" transform="translate(1514,1104)"/>
<path fill="#1E86B5" d="m0 0 3 1-6 5-7 8-15 16-9 10-7 7v-3l12-13 9-11z" transform="translate(1156,1091)"/>
<path fill="#2088D3" d="m0 0h4l-2 4-4 5h-2l-2 4-13 16-8 10-2-2 5-7 5-5 8-11h2v-4l3-3 4-6z" transform="translate(912,1112)"/>
<path fill="#1D84CD" d="m0 0 8 4 5 5 12 9 5 4 3 1v2l5 2 6 4v2l3 1h-5l-16-12-11-8-11-9z" transform="translate(704,1367)"/>
<path fill="#228CD8" d="m0 0h46v1l-26 2h-21l-11-1v-1z" transform="translate(1419,954)"/>
<path fill="#156AB4" d="m0 0 2 1-6 7h-2l-2 4-6 4-6 6-4 7-7 5-4-1 3-2 8-7 7-8 6-6h2l1-3z" transform="translate(1112,1137)"/>
<path fill="#219DD3" d="m0 0h2l5 9-3 2h-13l-3-2 8-1v-5l2-1v2h3z" transform="translate(1403,684)"/>
<path fill="#1360AC" d="m0 0v3l-10 13-12 13-9 9-9 6-2-1 12-9 13-13 11-14z" transform="translate(895,1138)"/>
<path fill="#1D9ACF" d="m0 0 5 4-5 5-5 3-4 1-4 3 2-4 6-10 4 1z" transform="translate(1098,1037)"/>
<path fill="#1361AD" d="m0 0h19v1l-11 1h-8v2l5 1 2 2-9-1-8-2-7-1 4-2z" transform="translate(1514,1167)"/>
<path fill="#1F7FBB" d="m0 0h2l-1 5-5 2-9 9-11 14-3 2 1-5 8-8 9-11z" transform="translate(925,996)"/>
<path fill="#166EB7" d="m0 0h10l11 4 6 5 7 9v5l-4-5-6-8-5-4-7-3-12-1z" transform="translate(1015,806)"/>
<path fill="#197EC2" d="m0 0h3l-2 5-12 1-1 4-4 1-2-2h2l2-4 6-4z" transform="translate(949,646)"/>
<path fill="#1C79BF" d="m0 0 7 6 6 7 6 11v2h-3v-2l-2-1v-4l-4-1-2-3v-5l-8-8z" transform="translate(1517,1141)"/>
<path fill="#1F88B5" d="m0 0h6v1l-10 3-10 4-11 7-9 8-3-1 8-7 14-9z" transform="translate(1194,1068)"/>
<path fill="#1872BD" d="m0 0h6l-4 3-11 5-10 2h-7l-1-2 13-2h7l1-3z" transform="translate(846,1183)"/>
<path fill="#1469B3" d="m0 0h7l11 7 2 4h2l6 10v2h-2l-7-11-9-7-10-4z" transform="translate(1518,1174)"/>
<path fill="#1563AE" d="m0 0 6 1-3 1-1 3-12 6-13 10-2-1 4-4h2v-2l13-8 6-5z" transform="translate(951,1085)"/>
<path fill="#1C82CC" d="m0 0 3 3 3 5 5 5 6 11v2h-2l-14-22z" transform="translate(612,1253)"/>
<path fill="#166FB9" d="m0 0h16v1l-15 1-11 4-11 9-3 1-1 2 1-4 10-8 10-5z" transform="translate(622,807)"/>
<path fill="#2B95DA" d="m0 0h1l2 11 4 12 3 5v2l-5-2v-2h-2l-3-17z" transform="translate(838,684)"/>
<path fill="#1E86D0" d="m0 0h2l2 5 2 25-2-3-4-22z" transform="translate(564,1123)"/>
<path fill="#1467B2" d="m0 0 3 1-16 8-6 4-3 3-2-1 1-3 13-8z" transform="translate(1031,1246)"/>
<path fill="#2294B6" d="m0 0 3 1-6 5-7 8-5 4v-3z" transform="translate(1156,1091)"/>
<path fill="#1D83CC" d="m0 0 4 1v2l4 2v2l4 2 10 10h-3l-9-9-8-7z" transform="translate(682,1347)"/>
<path fill="#3D84BF" d="m0 0h17l15 1v1l-32 1z" transform="translate(746,953)"/>
<path fill="#1C83B3" d="m0 0h2l-2 5-6 7-3-1 1-4 4-1 1-4z" transform="translate(1514,1104)"/>
<path fill="#1569B1" d="m0 0v3l-11 7-2 2-3-1 5-5 4-3h2z" transform="translate(1098,1045)"/>
<path fill="#1E86D0" d="m0 0h2l-1 4h5l3 3h-13l1-4z" transform="translate(938,717)"/>
<path fill="#1D88D0" d="m0 0m-1 1m-1 1m-2 1 4 2-20 10 1-3 4-1 1-2z" transform="translate(1122,1028)"/>
<path fill="#218BD7" d="m0 0h22l-3 3-19-1z" transform="translate(1276,653)"/>
<path fill="#156AB4" d="m0 0 2 1-9 12-3 10-2 1 3-12 6-8z" transform="translate(1006,1260)"/>
<path fill="#1D84CD" d="m0 0 2 3 6 2v1h-20l4-2 7-2z" transform="translate(999,1322)"/>
<path fill="#1D83CD" d="m0 0 6 2 8 5v2l3 1h-5l-12-9z" transform="translate(734,1391)"/>
<path fill="#1569B4" d="m0 0 20 1-4 2h-15z" transform="translate(707,805)"/>
<path fill="#269FB3" d="m0 0h2l-2 4-12 12v-3z" transform="translate(1127,1122)"/>
<path fill="#1E84CE" d="m0 0 2 1-10 8-3 3h-5l4-4 7-4z" transform="translate(864,1171)"/>
<path fill="#1D84CD" d="m0 0m-1 1m-3 1h8l-4 3-6 2h-4l1-3z" transform="translate(1527,1017)"/>
<path fill="#1F87D2" d="m0 0 5 2 7 6 3 1-1 2-5-2-9-7z" transform="translate(722,1381)"/>
<path fill="#1772BB" d="m0 0 2 1-6 7h-2l-2 4h-3l3-5z" transform="translate(1112,1137)"/>
<path fill="#1F87D1" d="m0 0 4 1 4 8v2l-3-1-5-8z" transform="translate(628,1279)"/>
<path fill="#1670B9" d="m0 0h7l8 5 1 3-5-2-7-4z" transform="translate(1518,1174)"/>
<path fill="#2089D4" d="m0 0 2 4 1 3h-15v-1l9-1z" transform="translate(1530,1160)"/>
<path fill="#1F87D1" d="m0 0 1 3-9 11-2-2 8-11z" transform="translate(903,1125)"/>
<path fill="#1A7EC6" d="m0 0 19 1v2l-5 1-1-1-14-1z" transform="translate(934,1400)"/>
<path fill="#3CDCA7" d="m0 0 1 2 6-1-5 5-7 1z" transform="translate(1113,1138)"/>
<path fill="#1D84CD" d="m0 0 17 1v1l-20 2-2-2z" transform="translate(1497,1166)"/>
<path fill="#1465B0" d="m0 0 7 1 10 2-4 2h-7v-2l-6-2z" transform="translate(978,1322)"/>
<path fill="#1A78C3" d="m0 0h6l-4 3-4 2h-5l1-2z" transform="translate(846,1183)"/>
<path fill="#1E85CF" d="m0 0h6l-3 3-5 3-2 1v-4z" transform="translate(1095,1043)"/>
<path fill="#41A0DD" d="m0 0h8l2 2-4 1-9-1z" transform="translate(1394,692)"/>
</svg>